<svg width="30" height="30" viewBox="0 0 30 30" fill="none" xmlns="http://www.w3.org/2000/svg">
<path d="M15.001 0H0.50258C0.225492 0 0 0.225506 0 0.502612V29.4974C0 29.7745 0.225492 30 0.50258 30H14.999C23.283 30 30 23.2845 30 14.9981C30 6.71551 23.2849 0 15.001 0ZM16.78 22.264L7.7661 7.64429H14.999C19.056 7.64429 22.3543 10.9447 22.3543 15C22.3543 18.6616 20.2847 21.704 16.7781 22.264H16.78Z" fill="#4500F9"/>
<path d="M12.7422 16.3088C9.06746 16.3088 0 16.2821 0 13.2091C0 10.1361 4.09325 7.64404 7.7661 7.64404" fill="url(#paint0_linear_132_307)"/>
<defs>
<linearGradient id="paint0_linear_132_307" x1="6.37111" y1="13.9984" x2="6.37111" y2="-0.58503" gradientUnits="userSpaceOnUse">
<stop offset="0.1" stop-color="#4500F9" stop-opacity="0.5"/>
<stop offset="0.83"/>
</linearGradient>
</defs>
</svg>
